<svg width="57" height="57" viewBox="0 0 57 57" fill="none" xmlns="http://www.w3.org/2000/svg">
<path d="M38.143 50.115C36.5555 51.703 34.4022 52.5954 32.1568 52.5958C29.9114 52.5962 27.7578 51.7046 26.1698 50.1171C24.5818 48.5297 23.6894 46.3764 23.689 44.131C23.6886 41.8856 24.5802 39.732 26.1677 38.1439L18.6879 45.628C17.0999 47.216 14.946 48.1081 12.7002 48.1081C10.4544 48.1081 8.30061 47.216 6.71259 45.628C5.12456 44.04 4.23242 41.8861 4.23242 39.6403C4.23242 37.3945 5.12456 35.2407 6.71259 33.6527L33.6517 6.71356C35.2397 5.12554 37.3936 4.2334 39.6394 4.2334C41.8852 4.2334 44.039 5.12554 45.627 6.71356C47.215 8.30159 48.1072 10.4554 48.1072 12.7012C48.1072 14.947 47.215 17.1008 45.627 18.6889L38.143 26.1687C39.731 24.5812 41.8846 23.6896 44.13 23.69C46.3754 23.6904 48.5287 24.5827 50.1162 26.1708C51.7036 27.7588 52.5952 29.9124 52.5948 32.1578C52.5944 34.4032 51.7021 36.5565 50.114 38.1439L38.143 50.115Z" stroke="white" stroke-width="8.4661" stroke-linecap="round" stroke-linejoin="round"/>
</svg>
