<svg width="57" height="57" viewBox="0 0 57 57" fill="none" xmlns="http://www.w3.org/2000/svg">
<path d="M23.1755 50.1156C21.5875 51.7037 19.4337 52.5958 17.1879 52.5958C14.9421 52.5958 12.7883 51.7037 11.2002 50.1156C9.61222 48.5276 8.72007 46.3738 8.72007 44.128C8.72007 41.8822 9.61222 39.7284 11.2002 38.1403L18.6843 30.6605C17.898 31.4466 16.9645 32.07 15.9373 32.4953C14.91 32.9206 13.8091 33.1394 12.6972 33.1392C10.4518 33.1388 8.29855 32.2464 6.71109 30.6584C5.92506 29.8721 5.3016 28.9387 4.87631 27.9114C4.45102 26.8842 4.23223 25.7832 4.23242 24.6714C4.23282 22.426 5.12518 20.2727 6.71321 18.6852L18.6843 6.71418C20.2717 5.12616 22.425 4.2338 24.6704 4.2334C25.7822 4.2332 26.8832 4.45199 27.9105 4.87729C28.9377 5.30258 29.8711 5.92604 30.6574 6.71207C31.4438 7.4981 32.0675 8.43131 32.4932 9.45841C32.9189 10.4855 33.138 11.5864 33.1382 12.6982C33.1384 13.81 32.9196 14.911 32.4943 15.9383C32.0691 16.9655 31.4456 17.8989 30.6596 18.6852L38.1394 11.2012C39.7274 9.61319 41.8812 8.72105 44.127 8.72105C46.3728 8.72105 48.5266 9.61319 50.1147 11.2012C51.7027 12.7892 52.5948 14.9431 52.5948 17.1889C52.5948 19.4347 51.7027 21.5885 50.1147 23.1765L23.1755 50.1156Z" stroke="white" stroke-width="8.4661" stroke-linecap="round" stroke-linejoin="round"/>
</svg>
