<svg width="20" height="20" viewBox="0 0 20 20" fill="none" xmlns="http://www.w3.org/2000/svg">
<path d="M9.91305 2.47729C10.4637 4.68004 11.5651 6.46976 13.2172 7.84648C14.8692 9.22319 15.6953 10.7376 15.6953 12.3896C15.6953 13.9232 15.0861 15.3939 14.0017 16.4783C12.9173 17.5626 11.4466 18.1718 9.91305 18.1718C8.37952 18.1718 6.9088 17.5626 5.82443 16.4783C4.74005 15.3939 4.13086 13.9232 4.13086 12.3896C4.13086 11.496 4.4207 10.6265 4.95689 9.91155C4.95689 10.4592 5.17446 10.9845 5.56173 11.3718C5.94901 11.759 6.47427 11.9766 7.02196 11.9766C7.56965 11.9766 8.09491 11.759 8.48218 11.3718C8.86946 10.9845 9.08703 10.4592 9.08703 9.91155C9.08703 8.25949 7.84799 7.43346 7.84799 5.78141C7.84799 4.68004 8.53634 3.57867 9.91305 2.47729Z" stroke="#FF6900" stroke-width="1.65206" stroke-linecap="round" stroke-linejoin="round"/>
</svg>
