<svg width="20" height="20" viewBox="0 0 20 20" fill="none" xmlns="http://www.w3.org/2000/svg">
<path d="M9.91305 2.47852C10.4637 4.68126 11.5651 6.47098 13.2172 7.8477C14.8692 9.22441 15.6953 10.7388 15.6953 12.3909C15.6953 13.9244 15.0861 15.3951 14.0017 16.4795C12.9173 17.5639 11.4466 18.173 9.91305 18.173C8.37952 18.173 6.9088 17.5639 5.82443 16.4795C4.74005 15.3951 4.13086 13.9244 4.13086 12.3909C4.13086 11.4972 4.4207 10.6277 4.95689 9.91277C4.95689 10.4605 5.17446 10.9857 5.56173 11.373C5.94901 11.7603 6.47427 11.9778 7.02196 11.9778C7.56965 11.9778 8.09491 11.7603 8.48218 11.373C8.86946 10.9857 9.08703 10.4605 9.08703 9.91277C9.08703 8.26071 7.84799 7.43468 7.84799 5.78263C7.84799 4.68126 8.53634 3.57989 9.91305 2.47852Z" stroke="#FF6900" stroke-width="1.65206" stroke-linecap="round" stroke-linejoin="round"/>
</svg>
