<svg width="20" height="20" viewBox="0 0 20 20" fill="none" xmlns="http://www.w3.org/2000/svg">
<path d="M9.91305 2.47778C10.4637 4.68052 11.5651 6.47025 13.2172 7.84696C14.8692 9.22368 15.6953 10.7381 15.6953 12.3901C15.6953 13.9237 15.0861 15.3944 14.0017 16.4787C12.9173 17.5631 11.4466 18.1723 9.91305 18.1723C8.37952 18.1723 6.9088 17.5631 5.82443 16.4787C4.74005 15.3944 4.13086 13.9237 4.13086 12.3901C4.13086 11.4965 4.4207 10.6269 4.95689 9.91203C4.95689 10.4597 5.17446 10.985 5.56173 11.3723C5.94901 11.7595 6.47427 11.9771 7.02196 11.9771C7.56965 11.9771 8.09491 11.7595 8.48218 11.3723C8.86946 10.985 9.08703 10.4597 9.08703 9.91203C9.08703 8.25998 7.84799 7.43395 7.84799 5.78189C7.84799 4.68052 8.53634 3.57915 9.91305 2.47778Z" stroke="#FF6900" stroke-width="1.65206" stroke-linecap="round" stroke-linejoin="round"/>
</svg>
