<svg width="25" height="25" viewBox="0 0 25 25" fill="none" xmlns="http://www.w3.org/2000/svg">
<path d="M5.16699 5.16706C5.16688 4.8034 5.26273 4.44614 5.44486 4.13136C5.62699 3.81658 5.88895 3.55543 6.20429 3.37428C6.51963 3.19313 6.87718 3.09839 7.24085 3.09962C7.60452 3.10086 7.96142 3.19802 8.27552 3.38131L20.6735 10.6132C20.9864 10.7947 21.2461 11.0552 21.4268 11.3686C21.6074 11.682 21.7027 12.0373 21.703 12.3991C21.7033 12.7608 21.6087 13.1163 21.4286 13.43C21.2484 13.7437 20.9891 14.0047 20.6766 14.1868L8.27552 21.4207C7.96142 21.604 7.60452 21.7012 7.24085 21.7024C6.87718 21.7036 6.51963 21.6089 6.20429 21.4277C5.88895 21.2466 5.62699 20.9854 5.44486 20.6707C5.26273 20.3559 5.16688 19.9986 5.16699 19.635V5.16706Z" stroke="black" stroke-width="2.06684" stroke-linecap="round" stroke-linejoin="round"/>
</svg>
