<svg width="26" height="26" viewBox="0 0 26 26" fill="none" xmlns="http://www.w3.org/2000/svg">
<path d="M15.4451 15.4453L10.2969 10.2971" stroke="white" stroke-width="2.14509" stroke-linecap="round" stroke-linejoin="round"/>
<path d="M20.01 23.0439C19.6078 23.4463 19.0622 23.6724 18.4933 23.6725C17.9244 23.6726 17.3787 23.4467 16.9763 23.0445C16.574 22.6423 16.3479 22.0967 16.3478 21.5277C16.3477 20.9588 16.5736 20.4131 16.9758 20.0108L15.0806 21.907C14.6783 22.3094 14.1325 22.5354 13.5635 22.5354C12.9945 22.5354 12.4487 22.3094 12.0464 21.907C11.644 21.5047 11.418 20.9589 11.418 20.3899C11.418 19.8209 11.644 19.2752 12.0464 18.8728L18.8721 12.0471C19.2744 11.6447 19.8202 11.4187 20.3892 11.4187C20.9582 11.4187 21.5039 11.6447 21.9063 12.0471C22.3087 12.4495 22.5347 12.9952 22.5347 13.5642C22.5347 14.1333 22.3087 14.679 21.9063 15.0813L20.01 16.9765C20.4124 16.5743 20.9581 16.3484 21.527 16.3485C22.0959 16.3486 22.6415 16.5747 23.0437 16.9771C23.446 17.3794 23.6719 17.9251 23.6718 18.494C23.6717 19.063 23.4456 19.6086 23.0432 20.0108L20.01 23.0439Z" stroke="white" stroke-width="2.14509" stroke-linecap="round" stroke-linejoin="round"/>
<path d="M23.0592 23.0597L21.5576 21.5581" stroke="white" stroke-width="2.14509" stroke-linecap="round" stroke-linejoin="round"/>
<path d="M4.18321 4.1837L2.68164 2.68213" stroke="white" stroke-width="2.14509" stroke-linecap="round" stroke-linejoin="round"/>
<path d="M6.86806 13.6945C6.4657 14.0969 5.91998 14.3229 5.35095 14.3229C4.78192 14.3229 4.23619 14.0969 3.83383 13.6945C3.43146 13.2921 3.20542 12.7464 3.20542 12.1774C3.20542 11.6083 3.43146 11.0626 3.83383 10.6603L5.73009 8.76506C5.53086 8.96422 5.29435 9.12219 5.03407 9.22995C4.77379 9.3377 4.49483 9.39314 4.21313 9.39309C3.6442 9.39299 3.09861 9.16689 2.69639 8.76452C2.49723 8.56529 2.33926 8.32878 2.2315 8.0685C2.12375 7.80822 2.06831 7.52927 2.06836 7.24756C2.06846 6.67863 2.29456 6.13305 2.69693 5.73082L5.73009 2.69766C6.13231 2.2953 6.6779 2.06919 7.24683 2.06909C7.52853 2.06904 7.80749 2.12448 8.06777 2.23224C8.32805 2.33999 8.56456 2.49796 8.76379 2.69712C8.96302 2.89628 9.12107 3.13274 9.22892 3.39298C9.33677 3.65322 9.39231 3.93216 9.39236 4.21386C9.39241 4.49557 9.33697 4.77452 9.22921 5.0348C9.12146 5.29508 8.96349 5.53159 8.76433 5.73082L10.6595 3.83456C11.0619 3.4322 11.6076 3.20615 12.1766 3.20615C12.7457 3.20615 13.2914 3.4322 13.6938 3.83456C14.0961 4.23692 14.3222 4.78265 14.3222 5.35168C14.3222 5.92071 14.0961 6.46643 13.6938 6.8688L6.86806 13.6945Z" stroke="white" stroke-width="2.14509" stroke-linecap="round" stroke-linejoin="round"/>
</svg>
