<svg width="30" height="30" viewBox="0 0 30 30" fill="none" xmlns="http://www.w3.org/2000/svg">
<path d="M14.8777 3.71973C15.7044 7.0262 17.3576 9.71271 19.8375 11.7793C22.3173 13.8458 23.5572 16.119 23.5572 18.5989C23.5572 20.9008 22.6428 23.1085 21.0151 24.7362C19.3873 26.3639 17.1797 27.2784 14.8777 27.2784C12.5758 27.2784 10.3681 26.3639 8.74041 24.7362C7.11269 23.1085 6.19824 20.9008 6.19824 18.5989C6.19824 17.2574 6.63332 15.9522 7.43817 14.8791C7.43817 15.7012 7.76476 16.4897 8.34609 17.071C8.92742 17.6523 9.71587 17.9789 10.538 17.9789C11.3601 17.9789 12.1486 17.6523 12.7299 17.071C13.3112 16.4897 13.6378 15.7012 13.6378 14.8791C13.6378 12.3992 11.7779 11.1593 11.7779 8.67944C11.7779 7.0262 12.8112 5.37296 14.8777 3.71973Z" stroke="#FF6900" stroke-width="2.47986" stroke-linecap="round" stroke-linejoin="round"/>
</svg>
