<svg width="26" height="26" viewBox="0 0 26 26" fill="none" xmlns="http://www.w3.org/2000/svg">
<path d="M15.4451 15.4446L10.2969 10.2964" stroke="white" stroke-width="2.14509" stroke-linecap="round" stroke-linejoin="round"/>
<path d="M20.01 23.0432C19.6078 23.4456 19.0622 23.6717 18.4933 23.6718C17.9244 23.6719 17.3787 23.446 16.9763 23.0437C16.574 22.6415 16.3479 22.0959 16.3478 21.527C16.3477 20.9581 16.5736 20.4124 16.9758 20.01L15.0806 21.9063C14.6783 22.3087 14.1325 22.5347 13.5635 22.5347C12.9945 22.5347 12.4487 22.3087 12.0464 21.9063C11.644 21.5039 11.418 20.9582 11.418 20.3892C11.418 19.8202 11.644 19.2744 12.0464 18.8721L18.8721 12.0464C19.2744 11.644 19.8202 11.418 20.3892 11.418C20.9582 11.418 21.5039 11.644 21.9063 12.0464C22.3087 12.4487 22.5347 12.9945 22.5347 13.5635C22.5347 14.1325 22.3087 14.6783 21.9063 15.0806L20.01 16.9758C20.4124 16.5736 20.9581 16.3477 21.527 16.3478C22.0959 16.3479 22.6415 16.574 23.0437 16.9763C23.446 17.3787 23.6719 17.9244 23.6718 18.4933C23.6717 19.0622 23.4456 19.6078 23.0432 20.01L20.01 23.0432Z" stroke="white" stroke-width="2.14509" stroke-linecap="round" stroke-linejoin="round"/>
<path d="M23.0592 23.0597L21.5576 21.5581" stroke="white" stroke-width="2.14509" stroke-linecap="round" stroke-linejoin="round"/>
<path d="M4.18321 4.18223L2.68164 2.68066" stroke="white" stroke-width="2.14509" stroke-linecap="round" stroke-linejoin="round"/>
<path d="M6.86806 13.6938C6.4657 14.0961 5.91998 14.3222 5.35095 14.3222C4.78192 14.3222 4.23619 14.0961 3.83383 13.6938C3.43146 13.2914 3.20542 12.7457 3.20542 12.1766C3.20542 11.6076 3.43146 11.0619 3.83383 10.6595L5.73009 8.76433C5.53086 8.96349 5.29435 9.12146 5.03407 9.22921C4.77379 9.33697 4.49483 9.39241 4.21313 9.39236C3.6442 9.39226 3.09861 9.16616 2.69639 8.76379C2.49723 8.56456 2.33926 8.32805 2.2315 8.06777C2.12375 7.80749 2.06831 7.52853 2.06836 7.24683C2.06846 6.6779 2.29456 6.13231 2.69693 5.73009L5.73009 2.69693C6.13231 2.29456 6.6779 2.06846 7.24683 2.06836C7.52853 2.06831 7.80749 2.12375 8.06777 2.2315C8.32805 2.33926 8.56456 2.49723 8.76379 2.69639C8.96302 2.89555 9.12107 3.132 9.22892 3.39225C9.33677 3.65249 9.39231 3.93142 9.39236 4.21313C9.39241 4.49483 9.33697 4.77379 9.22921 5.03407C9.12146 5.29435 8.96349 5.53086 8.76433 5.73009L10.6595 3.83383C11.0619 3.43146 11.6076 3.20542 12.1766 3.20542C12.7457 3.20542 13.2914 3.43146 13.6938 3.83383C14.0961 4.23619 14.3222 4.78192 14.3222 5.35095C14.3222 5.91998 14.0961 6.4657 13.6938 6.86806L6.86806 13.6938Z" stroke="white" stroke-width="2.14509" stroke-linecap="round" stroke-linejoin="round"/>
</svg>
