<svg width="40" height="40" viewBox="0 0 40 40" fill="none" xmlns="http://www.w3.org/2000/svg">
<path d="M4.95801 16.5295C4.95789 16.0486 5.06269 15.5735 5.2651 15.1373C5.46751 14.701 5.76266 14.3142 6.12994 14.0038L17.7005 4.08616C18.2972 3.58186 19.0532 3.30518 19.8345 3.30518C20.6157 3.30518 21.3717 3.58186 21.9684 4.08616L33.539 14.0038C33.9063 14.3142 34.2015 14.701 34.4039 15.1373C34.6063 15.5735 34.7111 16.0486 34.711 16.5295V31.406C34.711 32.2828 34.3627 33.1236 33.7427 33.7436C33.1227 34.3636 32.2819 34.7119 31.4051 34.7119H8.26389C7.38712 34.7119 6.54625 34.3636 5.92628 33.7436C5.30631 33.1236 4.95801 32.2828 4.95801 31.406V16.5295Z" fill="#2B7FFF" stroke="#2B7FFF" stroke-width="3.30588" stroke-linecap="round" stroke-linejoin="round"/>
<g opacity="0.8">
<path d="M24.7936 34.7117V21.4881C24.7936 21.0498 24.6195 20.6293 24.3095 20.3193C23.9995 20.0094 23.5791 19.8352 23.1407 19.8352H16.5289C16.0905 19.8352 15.6701 20.0094 15.3601 20.3193C15.0501 20.6293 14.876 21.0498 14.876 21.4881V34.7117" fill="#2B7FFF"/>
<path d="M24.7936 34.7117V21.4881C24.7936 21.0498 24.6195 20.6293 24.3095 20.3193C23.9995 20.0094 23.5791 19.8352 23.1407 19.8352H16.5289C16.0905 19.8352 15.6701 20.0094 15.3601 20.3193C15.0501 20.6293 14.876 21.0498 14.876 21.4881V34.7117" stroke="white" stroke-width="3.30588" stroke-linecap="round" stroke-linejoin="round"/>
</g>
<path opacity="0.8" d="M4.95801 16.5295C4.95789 16.0486 5.06269 15.5735 5.2651 15.1373C5.46751 14.701 5.76266 14.3142 6.12994 14.0038L17.7005 4.08616C18.2972 3.58186 19.0532 3.30518 19.8345 3.30518C20.6157 3.30518 21.3717 3.58186 21.9684 4.08616L33.539 14.0038C33.9063 14.3142 34.2015 14.701 34.4039 15.1373C34.6063 15.5735 34.7111 16.0486 34.711 16.5295V31.406C34.711 32.2828 34.3627 33.1236 33.7427 33.7436C33.1227 34.3636 32.2819 34.7119 31.4051 34.7119H8.26389C7.38712 34.7119 6.54625 34.3636 5.92628 33.7436C5.30631 33.1236 4.95801 32.2828 4.95801 31.406V16.5295Z" stroke="white" stroke-width="3.30588" stroke-linecap="round" stroke-linejoin="round"/>
</svg>
