<svg width="40" height="40" viewBox="0 0 40 40" fill="none" xmlns="http://www.w3.org/2000/svg">
<path d="M24.7936 34.7117V21.4881C24.7936 21.0498 24.6195 20.6293 24.3095 20.3193C23.9995 20.0094 23.5791 19.8352 23.1407 19.8352H16.5289C16.0905 19.8352 15.6701 20.0094 15.3601 20.3193C15.0501 20.6293 14.876 21.0498 14.876 21.4881V34.7117" stroke="#71717B" stroke-width="3.30588" stroke-linecap="round" stroke-linejoin="round"/>
<path d="M4.95801 16.5293C4.95789 16.0484 5.06269 15.5732 5.2651 15.137C5.46751 14.7008 5.76266 14.314 6.12994 14.0036L17.7005 4.08591C18.2972 3.58161 19.0532 3.30493 19.8345 3.30493C20.6157 3.30493 21.3717 3.58161 21.9684 4.08591L33.539 14.0036C33.9063 14.314 34.2015 14.7008 34.4039 15.137C34.6063 15.5732 34.7111 16.0484 34.711 16.5293V31.4057C34.711 32.2825 34.3627 33.1234 33.7427 33.7434C33.1227 34.3633 32.2819 34.7116 31.4051 34.7116H8.26389C7.38712 34.7116 6.54625 34.3633 5.92628 33.7434C5.30631 33.1234 4.95801 32.2825 4.95801 31.4057V16.5293Z" stroke="#71717B" stroke-width="3.30588" stroke-linecap="round" stroke-linejoin="round"/>
</svg>
