<svg width="33" height="33" viewBox="0 0 33 33" fill="none" xmlns="http://www.w3.org/2000/svg">
<path d="M23.6231 17.1408C24.1267 17.6444 24.8098 17.9273 25.522 17.9273C26.2342 17.9273 26.9173 17.6444 27.4209 17.1408C27.9246 16.6372 28.2075 15.9541 28.2075 15.2418C28.2075 14.5296 27.9246 13.8465 27.4209 13.3429L25.0474 10.9708C25.5511 11.4742 26.2341 11.757 26.9462 11.7568C27.2988 11.7568 27.6479 11.6873 27.9736 11.5523C28.2994 11.4173 28.5953 11.2195 28.8446 10.9701C29.0939 10.7207 29.2916 10.4247 29.4265 10.0989C29.5614 9.77311 29.6308 9.42395 29.6307 9.07135C29.6307 8.71874 29.5611 8.36961 29.4261 8.04387C29.2912 7.71813 29.0933 7.42217 28.844 7.17289L25.0474 3.37636C24.544 2.87273 23.8611 2.58973 23.149 2.5896C22.4369 2.58947 21.7539 2.87224 21.2502 3.37569C20.7466 3.87914 20.4636 4.56204 20.4635 5.27415C20.4633 5.98626 20.7461 6.66926 21.2496 7.17289L18.8774 4.79939C18.628 4.55002 18.332 4.3522 18.0062 4.21724C17.6803 4.08228 17.3311 4.01282 16.9785 4.01282C16.6258 4.01282 16.2766 4.08228 15.9508 4.21724C15.625 4.3522 15.3289 4.55002 15.0795 4.79939C14.8302 5.04876 14.6323 5.34481 14.4974 5.67063C14.3624 5.99644 14.293 6.34566 14.293 6.69832C14.293 7.05099 14.3624 7.4002 14.4974 7.72602C14.6323 8.05184 14.8302 8.34788 15.0795 8.59726L23.6231 17.1408Z" stroke="white" stroke-width="2.68495" stroke-linecap="round" stroke-linejoin="round"/>
<path d="M3.35645 28.8634L5.23649 26.9834" stroke="white" stroke-width="2.68495" stroke-linecap="round" stroke-linejoin="round"/>
<path d="M26.9844 5.23649L28.8644 3.35645" stroke="white" stroke-width="2.68495" stroke-linecap="round" stroke-linejoin="round"/>
<path d="M7.17313 28.843C7.67658 29.3466 8.35948 29.6296 9.07159 29.6297C9.42419 29.6298 9.77336 29.5604 10.0991 29.4255C10.4249 29.2907 10.721 29.0929 10.9703 28.8436C11.2197 28.5944 11.4175 28.2984 11.5525 27.9727C11.6875 27.6469 11.757 27.2978 11.7571 26.9452C11.7572 26.5926 11.6878 26.2434 11.5529 25.9176C11.418 25.5919 11.2203 25.2958 10.971 25.0465L13.3432 27.42C13.8468 27.9236 14.5299 28.2065 15.2421 28.2065C15.9543 28.2065 16.6374 27.9236 17.141 27.42C17.6447 26.9163 17.9276 26.2333 17.9276 25.521C17.9276 24.8088 17.6447 24.1257 17.141 23.6221L8.5975 15.0786C8.34813 14.8292 8.05208 14.6314 7.72626 14.4964C7.40044 14.3615 7.05123 14.292 6.69857 14.292C6.3459 14.292 5.99669 14.3615 5.67087 14.4964C5.34505 14.6314 5.049 14.8292 4.79963 15.0786C4.55026 15.3279 4.35245 15.624 4.21749 15.9498C4.08253 16.2756 4.01307 16.6248 4.01307 16.9775C4.01307 17.3302 4.08253 17.6794 4.21749 18.0052C4.35245 18.331 4.55026 18.6271 4.79963 18.8764L7.17313 21.2486C6.6695 20.7451 5.98651 20.4624 5.27439 20.4625C4.56228 20.4626 3.87938 20.7456 3.37593 21.2493C2.87248 21.7529 2.58972 22.4359 2.58984 23.148C2.58997 23.8601 2.87298 24.543 3.3766 25.0465L7.17313 28.843Z" stroke="white" stroke-width="2.68495" stroke-linecap="round" stroke-linejoin="round"/>
<path d="M12.8877 19.3321L19.3316 12.8882" stroke="white" stroke-width="2.68495" stroke-linecap="round" stroke-linejoin="round"/>
</svg>
