<svg width="30" height="30" viewBox="0 0 30 30" fill="none" xmlns="http://www.w3.org/2000/svg">
<path d="M14.8787 3.71973C15.7053 7.0262 17.3586 9.71271 19.8384 11.7793C22.3183 13.8458 23.5582 16.119 23.5582 18.5989C23.5582 20.9008 22.6438 23.1085 21.016 24.7362C19.3883 26.3639 17.1807 27.2784 14.8787 27.2784C12.5768 27.2784 10.3691 26.3639 8.74138 24.7362C7.11366 23.1085 6.19922 20.9008 6.19922 18.5989C6.19922 17.2574 6.6343 15.9522 7.43915 14.8791C7.43915 15.7012 7.76573 16.4897 8.34706 17.071C8.92839 17.6523 9.71684 17.9789 10.539 17.9789C11.3611 17.9789 12.1495 17.6523 12.7309 17.071C13.3122 16.4897 13.6388 15.7012 13.6388 14.8791C13.6388 12.3992 11.7789 11.1593 11.7789 8.67944C11.7789 7.0262 12.8122 5.37296 14.8787 3.71973Z" fill="#FF6900" stroke="#FF6900" stroke-width="2.47986" stroke-linecap="round" stroke-linejoin="round"/>
</svg>
