<svg width="40" height="40" viewBox="0 0 40 40" fill="none" xmlns="http://www.w3.org/2000/svg">
<path d="M24.7936 34.7122V21.4886C24.7936 21.0502 24.6195 20.6298 24.3095 20.3198C23.9995 20.0098 23.5791 19.8357 23.1407 19.8357H16.5289C16.0905 19.8357 15.6701 20.0098 15.3601 20.3198C15.0501 20.6298 14.876 21.0502 14.876 21.4886V34.7122" stroke="#71717B" stroke-width="3.30588" stroke-linecap="round" stroke-linejoin="round"/>
<path d="M4.95801 16.529C4.95789 16.0481 5.06269 15.573 5.2651 15.1368C5.46751 14.7006 5.76266 14.3137 6.12994 14.0033L17.7005 4.08567C18.2972 3.58137 19.0532 3.30469 19.8345 3.30469C20.6157 3.30469 21.3717 3.58137 21.9684 4.08567L33.539 14.0033C33.9063 14.3137 34.2015 14.7006 34.4039 15.1368C34.6063 15.573 34.7111 16.0481 34.711 16.529V31.4055C34.711 32.2823 34.3627 33.1231 33.7427 33.7431C33.1227 34.3631 32.2819 34.7114 31.4051 34.7114H8.26389C7.38712 34.7114 6.54625 34.3631 5.92628 33.7431C5.30631 33.1231 4.95801 32.2823 4.95801 31.4055V16.529Z" stroke="#71717B" stroke-width="3.30588" stroke-linecap="round" stroke-linejoin="round"/>
</svg>
