<svg width="40" height="40" viewBox="0 0 40 40" fill="none" xmlns="http://www.w3.org/2000/svg">
<path d="M31.4049 34.7109V31.405C31.4049 29.6514 30.7083 27.9697 29.4683 26.7298C28.2284 25.4898 26.5466 24.7932 24.7931 24.7932H14.8754C13.1219 24.7932 11.4402 25.4898 10.2002 26.7298C8.96027 27.9697 8.26367 29.6514 8.26367 31.405V34.7109" fill="#2B7FFF"/>
<path d="M31.4049 34.7109V31.405C31.4049 29.6514 30.7083 27.9697 29.4683 26.7298C28.2284 25.4898 26.5466 24.7932 24.7931 24.7932H14.8754C13.1219 24.7932 11.4402 25.4898 10.2002 26.7298C8.96027 27.9697 8.26367 29.6514 8.26367 31.405V34.7109" stroke="#2B7FFF" stroke-width="3.30588" stroke-linejoin="round"/>
<path d="M31.4049 34.7109V31.405C31.4049 29.6514 30.7083 27.9697 29.4683 26.7298C28.2284 25.4898 26.5466 24.7932 24.7931 24.7932H14.8754C13.1219 24.7932 11.4402 25.4898 10.2002 26.7298C8.96027 27.9697 8.26367 29.6514 8.26367 31.405V34.7109" stroke="white" stroke-width="3.30588" stroke-linejoin="round"/>
<path d="M19.8344 18.1815C23.486 18.1815 26.4462 15.2214 26.4462 11.5698C26.4462 7.9182 23.486 4.95801 19.8344 4.95801C16.1828 4.95801 13.2227 7.9182 13.2227 11.5698C13.2227 15.2214 16.1828 18.1815 19.8344 18.1815Z" fill="#2B7FFF" stroke="#2B7FFF" stroke-width="3.30588" stroke-linecap="round" stroke-linejoin="round"/>
<path d="M19.8344 18.1815C23.486 18.1815 26.4462 15.2214 26.4462 11.5698C26.4462 7.9182 23.486 4.95801 19.8344 4.95801C16.1828 4.95801 13.2227 7.9182 13.2227 11.5698C13.2227 15.2214 16.1828 18.1815 19.8344 18.1815Z" stroke="white" stroke-width="3.30588" stroke-linecap="round" stroke-linejoin="round"/>
</svg>
