<svg width="50" height="50" viewBox="0 0 50 50" fill="none" xmlns="http://www.w3.org/2000/svg">
<path d="M24.8019 6.20117C26.1798 11.7128 28.9356 16.1909 33.0692 19.6356C37.2029 23.0804 39.2698 26.8696 39.2698 31.0033C39.2698 34.8404 37.7455 38.5204 35.0322 41.2336C32.319 43.9469 28.639 45.4712 24.8019 45.4712C20.9648 45.4712 17.2848 43.9469 14.5715 41.2336C11.8583 38.5204 10.334 34.8404 10.334 31.0033C10.334 28.7673 11.0592 26.5916 12.4008 24.8028C12.4008 26.1732 12.9452 27.4874 13.9142 28.4564C14.8833 29.4255 16.1975 29.9699 17.5679 29.9699C18.9383 29.9699 20.2526 29.4255 21.2216 28.4564C22.1906 27.4874 22.735 26.1732 22.735 24.8028C22.735 20.6691 19.6348 18.6022 19.6348 14.4685C19.6348 11.7128 21.3571 8.95696 24.8019 6.20117Z" stroke="#FF6900" stroke-width="4.13368" stroke-linecap="round" stroke-linejoin="round"/>
</svg>
