<svg width="40" height="40" viewBox="0 0 40 40" fill="none" xmlns="http://www.w3.org/2000/svg">
<path d="M15.9859 6.83684C16.077 5.8787 16.522 4.98892 17.234 4.34136C17.9461 3.6938 18.874 3.33496 19.8364 3.33496C20.7989 3.33496 21.7268 3.6938 22.4388 4.34136C23.1508 4.98892 23.5959 5.8787 23.6869 6.83684C23.7417 7.45579 23.9447 8.05244 24.2789 8.5763C24.6131 9.10015 25.0686 9.53578 25.6068 9.84631C26.145 10.1568 26.7501 10.3331 27.3709 10.3603C27.9916 10.3874 28.6098 10.2646 29.1731 10.0022C30.0477 9.60515 31.0387 9.5477 31.9533 9.84104C32.8679 10.1344 33.6407 10.7575 34.1212 11.5892C34.6017 12.4209 34.7555 13.4016 34.5528 14.3405C34.3501 15.2794 33.8053 16.1092 33.0244 16.6685C32.5159 17.0253 32.1009 17.4993 31.8143 18.0504C31.5278 18.6016 31.3782 19.2136 31.3782 19.8348C31.3782 20.4559 31.5278 21.0679 31.8143 21.6191C32.1009 22.1702 32.5159 22.6442 33.0244 23.001C33.8053 23.5603 34.3501 24.3901 34.5528 25.329C34.7555 26.2679 34.6017 27.2486 34.1212 28.0803C33.6407 28.912 32.8679 29.5351 31.9533 29.8285C31.0387 30.1218 30.0477 30.0643 29.1731 29.6673C28.6098 29.4049 27.9916 29.2821 27.3709 29.3092C26.7501 29.3364 26.145 29.5126 25.6068 29.8232C25.0686 30.1337 24.6131 30.5693 24.2789 31.0932C23.9447 31.6171 23.7417 32.2137 23.6869 32.8327C23.5959 33.7908 23.1508 34.6806 22.4388 35.3281C21.7268 35.9757 20.7989 36.3345 19.8364 36.3345C18.874 36.3345 17.9461 35.9757 17.234 35.3281C16.522 34.6806 16.077 33.7908 15.9859 32.8327C15.9313 32.2135 15.7282 31.6166 15.3939 31.0926C15.0596 30.5685 14.604 30.1328 14.0656 29.8222C13.5271 29.5116 12.9218 29.3354 12.3008 29.3084C11.6798 29.2815 11.0614 29.4046 10.4981 29.6673C9.62353 30.0643 8.63249 30.1218 7.71787 29.8285C6.80326 29.5351 6.03051 28.912 5.55001 28.0803C5.06952 27.2486 4.91567 26.2679 5.11839 25.329C5.32112 24.3901 5.86592 23.5603 6.64677 23.001C7.15525 22.6442 7.57032 22.1702 7.85687 21.6191C8.14342 21.0679 8.29302 20.4559 8.29302 19.8348C8.29302 19.2136 8.14342 18.6016 7.85687 18.0504C7.57032 17.4993 7.15525 17.0253 6.64677 16.6685C5.86702 16.1089 5.32318 15.2794 5.12094 14.3412C4.9187 13.4029 5.07252 12.423 5.55249 11.5919C6.03247 10.7607 6.80431 10.1377 7.71802 9.84394C8.63173 9.55015 9.62204 9.60657 10.4965 10.0022C11.0597 10.2646 11.6779 10.3874 12.2987 10.3603C12.9194 10.3331 13.5245 10.1568 14.0628 9.84631C14.601 9.53578 15.0564 9.10015 15.3906 8.5763C15.7248 8.05244 15.9278 7.45579 15.9826 6.83684" stroke="#9F9FA9" stroke-width="3.30588" stroke-linecap="round" stroke-linejoin="round"/>
<path d="M19.8358 24.7934C22.5745 24.7934 24.7946 22.5732 24.7946 19.8346C24.7946 17.0959 22.5745 14.8757 19.8358 14.8757C17.0971 14.8757 14.877 17.0959 14.877 19.8346C14.877 22.5732 17.0971 24.7934 19.8358 24.7934Z" stroke="#9F9FA9" stroke-width="3.30588" stroke-linecap="round" stroke-linejoin="round"/>
</svg>
