<svg width="40" height="40" viewBox="0 0 40 40" fill="none" xmlns="http://www.w3.org/2000/svg">
<path d="M29.0845 21.1038C29.7046 21.7239 30.5456 22.0723 31.4226 22.0723C32.2995 22.0723 33.1405 21.7239 33.7606 21.1038C34.3807 20.4837 34.7291 19.6427 34.7291 18.7657C34.7291 17.8888 34.3807 17.0478 33.7606 16.4277L30.8382 13.5069C31.4583 14.1268 32.2993 14.4749 33.1761 14.4748C33.6102 14.4747 34.0401 14.3891 34.4412 14.2229C34.8423 14.0567 35.2067 13.8131 35.5136 13.5061C35.8205 13.199 36.064 12.8345 36.23 12.4334C36.3961 12.0323 36.4815 11.6024 36.4815 11.1682C36.4814 10.7341 36.3958 10.3042 36.2296 9.90314C36.0634 9.50207 35.8198 9.13766 35.5128 8.83073L30.8382 4.15621C30.2184 3.53611 29.3775 3.18766 28.5007 3.1875C27.6239 3.18735 26.783 3.5355 26.1629 4.15538C25.5428 4.77526 25.1943 5.61609 25.1942 6.49289C25.194 7.36968 25.5422 8.21063 26.1621 8.83073L23.2413 5.90833C22.9343 5.60129 22.5698 5.35773 22.1686 5.19156C21.7674 5.02539 21.3375 4.93986 20.9032 4.93986C20.469 4.93986 20.039 5.02539 19.6379 5.19156C19.2367 5.35773 18.8722 5.60129 18.5651 5.90833C18.2581 6.21537 18.0145 6.57988 17.8484 6.98105C17.6822 7.38222 17.5967 7.81219 17.5967 8.24641C17.5967 8.68064 17.6822 9.11061 17.8484 9.51178C18.0145 9.91295 18.2581 10.2775 18.5651 10.5845L29.0845 21.1038Z" stroke="#71717B" stroke-width="3.30588" stroke-linecap="round" stroke-linejoin="round"/>
<path d="M4.13184 35.5382L6.44595 33.2241" stroke="#71717B" stroke-width="3.30588" stroke-linecap="round" stroke-linejoin="round"/>
<path d="M33.2236 6.44644L35.5378 4.13232" stroke="#71717B" stroke-width="3.30588" stroke-linecap="round" stroke-linejoin="round"/>
<path d="M8.83073 35.5128C9.45061 36.1329 10.2914 36.4813 11.1682 36.4815C11.6024 36.4815 12.0323 36.3961 12.4334 36.23C12.8345 36.064 13.199 35.8205 13.5061 35.5136C13.8131 35.2067 14.0567 34.8423 14.2229 34.4412C14.3891 34.0401 14.4747 33.6102 14.4748 33.1761C14.4749 32.7419 14.3894 32.312 14.2234 31.9109C14.0573 31.5098 13.8138 31.1453 13.5069 30.8382L16.4277 33.7606C17.0478 34.3807 17.8888 34.7291 18.7657 34.7291C19.6427 34.7291 20.4837 34.3807 21.1038 33.7606C21.7239 33.1405 22.0723 32.2995 22.0723 31.4226C22.0723 30.5456 21.7239 29.7046 21.1038 29.0845L10.5845 18.5651C10.2775 18.2581 9.91295 18.0145 9.51178 17.8484C9.11061 17.6822 8.68064 17.5967 8.24641 17.5967C7.81219 17.5967 7.38222 17.6822 6.98105 17.8484C6.57988 18.0145 6.21537 18.2581 5.90833 18.5651C5.60129 18.8722 5.35773 19.2367 5.19156 19.6379C5.02539 20.039 4.93986 20.469 4.93986 20.9032C4.93986 21.3375 5.02539 21.7674 5.19156 22.1686C5.35773 22.5698 5.60129 22.9343 5.90833 23.2413L8.83073 26.1621C8.21063 25.5422 7.36968 25.194 6.49289 25.1942C5.61609 25.1943 4.77526 25.5428 4.15538 26.1629C3.5355 26.783 3.18735 27.6239 3.1875 28.5007C3.18766 29.3775 3.53611 30.2184 4.15621 30.8382L8.83073 35.5128Z" stroke="#71717B" stroke-width="3.30588" stroke-linecap="round" stroke-linejoin="round"/>
<path d="M15.8682 23.8013L23.8023 15.8672" stroke="#71717B" stroke-width="3.30588" stroke-linecap="round" stroke-linejoin="round"/>
</svg>
