<svg width="40" height="40" viewBox="0 0 40 40" fill="none" xmlns="http://www.w3.org/2000/svg">
<path d="M31.4049 34.7111V31.4052C31.4049 29.6517 30.7083 27.9699 29.4683 26.73C28.2284 25.4901 26.5466 24.7935 24.7931 24.7935H14.8754C13.1219 24.7935 11.4402 25.4901 10.2002 26.73C8.96027 27.9699 8.26367 29.6517 8.26367 31.4052V34.7111" fill="#2B7FFF"/>
<path d="M31.4049 34.7111V31.4052C31.4049 29.6517 30.7083 27.9699 29.4683 26.73C28.2284 25.4901 26.5466 24.7935 24.7931 24.7935H14.8754C13.1219 24.7935 11.4402 25.4901 10.2002 26.73C8.96027 27.9699 8.26367 29.6517 8.26367 31.4052V34.7111" stroke="#2B7FFF" stroke-width="3.30588" stroke-linejoin="round"/>
<path d="M19.8344 18.182C23.486 18.182 26.4462 15.2218 26.4462 11.5703C26.4462 7.91869 23.486 4.9585 19.8344 4.9585C16.1828 4.9585 13.2227 7.91869 13.2227 11.5703C13.2227 15.2218 16.1828 18.182 19.8344 18.182Z" fill="#2B7FFF" stroke="#2B7FFF" stroke-width="3.30588" stroke-linecap="round" stroke-linejoin="round"/>
<path d="M31.4049 34.7111V31.4052C31.4049 29.6517 30.7083 27.9699 29.4683 26.73C28.2284 25.4901 26.5466 24.7935 24.7931 24.7935H14.8754C13.1219 24.7935 11.4402 25.4901 10.2002 26.73C8.96027 27.9699 8.26367 29.6517 8.26367 31.4052V34.7111" stroke="white" stroke-width="3.30588" stroke-linejoin="round"/>
<path d="M19.8344 18.182C23.486 18.182 26.4462 15.2218 26.4462 11.5703C26.4462 7.91869 23.486 4.9585 19.8344 4.9585C16.1828 4.9585 13.2227 7.91869 13.2227 11.5703C13.2227 15.2218 16.1828 18.182 19.8344 18.182Z" stroke="white" stroke-width="3.30588" stroke-linecap="round" stroke-linejoin="round"/>
</svg>
