<svg width="20" height="20" viewBox="0 0 20 20" fill="none" xmlns="http://www.w3.org/2000/svg">
<path d="M9.91305 2.47754C10.4637 4.68028 11.5651 6.47001 13.2172 7.84672C14.8692 9.22343 15.6953 10.7378 15.6953 12.3899C15.6953 13.9234 15.0861 15.3941 14.0017 16.4785C12.9173 17.5629 11.4466 18.1721 9.91305 18.1721C8.37952 18.1721 6.9088 17.5629 5.82443 16.4785C4.74005 15.3941 4.13086 13.9234 4.13086 12.3899C4.13086 11.4962 4.4207 10.6267 4.95689 9.91179C4.95689 10.4595 5.17446 10.9847 5.56173 11.372C5.94901 11.7593 6.47427 11.9769 7.02196 11.9769C7.56965 11.9769 8.09491 11.7593 8.48218 11.372C8.86946 10.9847 9.08703 10.4595 9.08703 9.91179C9.08703 8.25973 7.84799 7.43371 7.84799 5.78165C7.84799 4.68028 8.53634 3.57891 9.91305 2.47754Z" stroke="#FF6900" stroke-width="1.65206" stroke-linecap="round" stroke-linejoin="round"/>
</svg>
