<svg width="20" height="20" viewBox="0 0 20 20" fill="none" xmlns="http://www.w3.org/2000/svg">
<path d="M9.91305 2.47803C10.4637 4.68077 11.5651 6.4705 13.2172 7.84721C14.8692 9.22392 15.6953 10.7383 15.6953 12.3904C15.6953 13.9239 15.0861 15.3946 14.0017 16.479C12.9173 17.5634 11.4466 18.1726 9.91305 18.1726C8.37952 18.1726 6.9088 17.5634 5.82443 16.479C4.74005 15.3946 4.13086 13.9239 4.13086 12.3904C4.13086 11.4967 4.4207 10.6272 4.95689 9.91228C4.95689 10.46 5.17446 10.9852 5.56173 11.3725C5.94901 11.7598 6.47427 11.9773 7.02196 11.9773C7.56965 11.9773 8.09491 11.7598 8.48218 11.3725C8.86946 10.9852 9.08703 10.46 9.08703 9.91228C9.08703 8.26022 7.84799 7.43419 7.84799 5.78214C7.84799 4.68077 8.53634 3.5794 9.91305 2.47803Z" stroke="#FF6900" stroke-width="1.65206" stroke-linecap="round" stroke-linejoin="round"/>
</svg>
