<svg width="26" height="26" viewBox="0 0 26 26" fill="none" xmlns="http://www.w3.org/2000/svg">
<path d="M15.4451 15.4451L10.2969 10.2969" stroke="white" stroke-width="2.14509" stroke-linecap="round" stroke-linejoin="round"/>
<path d="M20.01 23.0442C19.6078 23.4465 19.0622 23.6726 18.4933 23.6727C17.9244 23.6728 17.3787 23.4469 16.9763 23.0447C16.574 22.6425 16.3479 22.0969 16.3478 21.528C16.3477 20.9591 16.5736 20.4134 16.9758 20.011L15.0806 21.9073C14.6783 22.3096 14.1325 22.5357 13.5635 22.5357C12.9945 22.5357 12.4487 22.3096 12.0464 21.9073C11.644 21.5049 11.418 20.9592 11.418 20.3902C11.418 19.8211 11.644 19.2754 12.0464 18.873L18.8721 12.0474C19.2744 11.645 19.8202 11.4189 20.3892 11.4189C20.9582 11.4189 21.5039 11.645 21.9063 12.0474C22.3087 12.4497 22.5347 12.9954 22.5347 13.5645C22.5347 14.1335 22.3087 14.6792 21.9063 15.0816L20.01 16.9768C20.4124 16.5746 20.9581 16.3487 21.527 16.3488C22.0959 16.3489 22.6415 16.575 23.0437 16.9773C23.446 17.3797 23.6719 17.9254 23.6718 18.4943C23.6717 19.0632 23.4456 19.6088 23.0432 20.011L20.01 23.0442Z" stroke="white" stroke-width="2.14509" stroke-linecap="round" stroke-linejoin="round"/>
<path d="M23.0592 23.0597L21.5576 21.5581" stroke="white" stroke-width="2.14509" stroke-linecap="round" stroke-linejoin="round"/>
<path d="M4.18321 4.1837L2.68164 2.68213" stroke="white" stroke-width="2.14509" stroke-linecap="round" stroke-linejoin="round"/>
<path d="M6.86806 13.6947C6.4657 14.0971 5.91998 14.3231 5.35095 14.3231C4.78192 14.3231 4.23619 14.0971 3.83383 13.6947C3.43146 13.2924 3.20542 12.7466 3.20542 12.1776C3.20542 11.6086 3.43146 11.0629 3.83383 10.6605L5.73009 8.7653C5.53086 8.96446 5.29435 9.12243 5.03407 9.23019C4.77379 9.33795 4.49483 9.39338 4.21313 9.39333C3.6442 9.39323 3.09861 9.16713 2.69639 8.76477C2.49723 8.56554 2.33926 8.32903 2.2315 8.06875C2.12375 7.80847 2.06831 7.52951 2.06836 7.24781C2.06846 6.67888 2.29456 6.13329 2.69693 5.73107L5.73009 2.6979C6.13231 2.29554 6.6779 2.06944 7.24683 2.06934C7.52853 2.06929 7.80749 2.12472 8.06777 2.23248C8.32805 2.34024 8.56456 2.49821 8.76379 2.69737C8.96302 2.89653 9.12107 3.13298 9.22892 3.39322C9.33677 3.65346 9.39231 3.9324 9.39236 4.21411C9.39241 4.49581 9.33697 4.77477 9.22921 5.03505C9.12146 5.29533 8.96349 5.53184 8.76433 5.73107L10.6595 3.8348C11.0619 3.43244 11.6076 3.20639 12.1766 3.20639C12.7457 3.20639 13.2914 3.43244 13.6938 3.8348C14.0961 4.23717 14.3222 4.78289 14.3222 5.35192C14.3222 5.92095 14.0961 6.46668 13.6938 6.86904L6.86806 13.6947Z" stroke="white" stroke-width="2.14509" stroke-linecap="round" stroke-linejoin="round"/>
</svg>
