<svg width="40" height="40" viewBox="0 0 40 40" fill="none" xmlns="http://www.w3.org/2000/svg">
<path d="M24.7936 34.7119V21.4884C24.7936 21.05 24.6195 20.6296 24.3095 20.3196C23.9995 20.0096 23.5791 19.8354 23.1407 19.8354H16.5289C16.0905 19.8354 15.6701 20.0096 15.3601 20.3196C15.0501 20.6296 14.876 21.05 14.876 21.4884V34.7119" stroke="#71717B" stroke-width="3.30588" stroke-linecap="round" stroke-linejoin="round"/>
<path d="M4.95801 16.53C4.95789 16.0491 5.06269 15.574 5.2651 15.1377C5.46751 14.7015 5.76266 14.3147 6.12994 14.0043L17.7005 4.08665C18.2972 3.58235 19.0532 3.30566 19.8345 3.30566C20.6157 3.30566 21.3717 3.58235 21.9684 4.08665L33.539 14.0043C33.9063 14.3147 34.2015 14.7015 34.4039 15.1377C34.6063 15.574 34.7111 16.0491 34.711 16.53V31.4065C34.711 32.2832 34.3627 33.1241 33.7427 33.7441C33.1227 34.3641 32.2819 34.7124 31.4051 34.7124H8.26389C7.38712 34.7124 6.54625 34.3641 5.92628 33.7441C5.30631 33.1241 4.95801 32.2832 4.95801 31.4065V16.53Z" stroke="#71717B" stroke-width="3.30588" stroke-linecap="round" stroke-linejoin="round"/>
</svg>
