<svg width="31" height="31" viewBox="0 0 31 31" fill="none" xmlns="http://www.w3.org/2000/svg">
<path d="M6.25293 6.25212C6.2528 5.81208 6.36878 5.37979 6.58915 4.99891C6.80953 4.61803 7.1265 4.30204 7.50807 4.08284C7.88963 3.86365 8.32227 3.74901 8.76231 3.7505C9.20235 3.752 9.63421 3.86957 10.0143 4.09135L25.0159 12.842C25.3945 13.0617 25.7088 13.3768 25.9274 13.7561C26.146 14.1353 26.2612 14.5652 26.2616 15.0029C26.262 15.4406 26.1475 15.8708 25.9295 16.2504C25.7116 16.6299 25.3978 16.9457 25.0196 17.166L10.0143 25.9191C9.63421 26.1409 9.20235 26.2585 8.76231 26.26C8.32227 26.2615 7.88963 26.1468 7.50807 25.9276C7.1265 25.7085 6.80953 25.3925 6.58915 25.0116C6.36878 24.6307 6.2528 24.1984 6.25293 23.7584V6.25212Z" stroke="white" stroke-width="2.50089" stroke-linecap="round" stroke-linejoin="round"/>
</svg>
