<svg width="30" height="30" viewBox="0 0 30 30" fill="none" xmlns="http://www.w3.org/2000/svg">
<path d="M26.0381 4.95996V24.7988" stroke="white" stroke-width="2.47986" stroke-linecap="round" stroke-linejoin="round"/>
<path d="M7.47547 5.31336C7.09916 5.08758 6.66968 4.9657 6.23087 4.96016C5.79206 4.95462 5.35964 5.06563 4.97776 5.28185C4.59587 5.49807 4.27821 5.81176 4.05719 6.19088C3.83617 6.57001 3.71972 7.001 3.71973 7.43984V22.319C3.71972 22.7578 3.83617 23.1888 4.05719 23.5679C4.27821 23.9471 4.59587 24.2608 4.97776 24.477C5.35964 24.6932 5.79206 24.8042 6.23087 24.7987C6.66968 24.7931 7.09916 24.6712 7.47547 24.4455L19.871 17.0084C20.239 16.7885 20.5437 16.477 20.7554 16.1043C20.9671 15.7316 21.0786 15.3104 21.079 14.8817C21.0793 14.4531 20.9686 14.0316 20.7575 13.6585C20.5465 13.2854 20.2423 12.9734 19.8747 12.7529L7.47547 5.31336Z" stroke="white" stroke-width="2.47986" stroke-linecap="round" stroke-linejoin="round"/>
</svg>
