<svg width="30" height="30" viewBox="0 0 30 30" fill="none" xmlns="http://www.w3.org/2000/svg">
<path d="M6.25195 6.25252C6.25182 5.81249 6.3678 5.38022 6.58817 4.99935C6.80853 4.61849 7.12549 4.30251 7.50704 4.08332C7.88859 3.86413 8.32122 3.7495 8.76124 3.75099C9.20127 3.75248 9.63311 3.87005 10.0132 4.09183L25.0142 12.8421C25.3928 13.0618 25.7071 13.377 25.9257 13.7562C26.1443 14.1354 26.2595 14.5653 26.2599 15.003C26.2603 15.4407 26.1458 15.8708 25.9278 16.2504C25.7099 16.63 25.3962 16.9457 25.018 17.166L10.0132 25.9188C9.63311 26.1406 9.20127 26.2582 8.76124 26.2596C8.32122 26.2611 7.88859 26.1465 7.50704 25.9273C7.12549 25.7081 6.80853 25.3922 6.58817 25.0113C6.3678 24.6304 6.25182 24.1981 6.25195 23.7581V6.25252Z" stroke="white" stroke-width="2.5008" stroke-linecap="round" stroke-linejoin="round"/>
</svg>
