<svg width="40" height="40" viewBox="0 0 40 40" fill="none" xmlns="http://www.w3.org/2000/svg">
<path d="M4.13184 35.5382L6.44596 33.2241L4.13184 35.5382Z" fill="white"/>
<path d="M4.13184 35.5382L6.44595 33.2241" stroke="white" stroke-width="3.30588" stroke-linecap="round" stroke-linejoin="round"/>
<path d="M33.2236 6.4462L35.5378 4.13208L33.2236 6.4462Z" fill="white"/>
<path d="M33.2236 6.4462L35.5378 4.13208" stroke="white" stroke-width="3.30588" stroke-linecap="round" stroke-linejoin="round"/>
<path d="M15.8682 23.8025L23.8023 15.8684L15.8682 23.8025Z" fill="white"/>
<path d="M15.8682 23.8025L23.8023 15.8684" stroke="white" stroke-width="3.30588" stroke-linecap="round" stroke-linejoin="round"/>
<path d="M29.0845 21.1048C29.7046 21.7249 30.5456 22.0733 31.4226 22.0733C32.2995 22.0733 33.1405 21.7249 33.7606 21.1048C34.3807 20.4847 34.7291 19.6437 34.7291 18.7667C34.7291 17.8898 34.3807 17.0487 33.7606 16.4286L30.8382 13.5079C31.4583 14.1278 32.2993 14.4759 33.1761 14.4758C33.6102 14.4757 34.0401 14.3901 34.4412 14.2239C34.8423 14.0577 35.2067 13.8141 35.5136 13.5071C35.8205 13.2 36.064 12.8355 36.23 12.4344C36.3961 12.0333 36.4815 11.6034 36.4815 11.1692C36.4814 10.7351 36.3958 10.3052 36.2296 9.90411C36.0634 9.50304 35.8198 9.13864 35.5128 8.83171L30.8382 4.15719C30.2184 3.53709 29.3775 3.18863 28.5007 3.18848C27.6239 3.18832 26.783 3.53648 26.1629 4.15636C25.5428 4.77624 25.1943 5.61706 25.1942 6.49386C25.194 7.37066 25.5422 8.21161 26.1621 8.83171L23.2413 5.9093C22.9343 5.60226 22.5698 5.3587 22.1686 5.19253C21.7674 5.02636 21.3375 4.94084 20.9032 4.94084C20.469 4.94084 20.039 5.02636 19.6379 5.19253C19.2367 5.3587 18.8722 5.60226 18.5651 5.9093C18.2581 6.21635 18.0145 6.58086 17.8484 6.98203C17.6822 7.3832 17.5967 7.81317 17.5967 8.24739C17.5967 8.68161 17.6822 9.11159 17.8484 9.51275C18.0145 9.91392 18.2581 10.2784 18.5651 10.5855L29.0845 21.1048Z" fill="#2B7FFF" stroke="#2B7FFF" stroke-width="3.30588" stroke-linecap="round" stroke-linejoin="round"/>
<path d="M8.83073 35.5135C9.45061 36.1336 10.2914 36.482 11.1682 36.4822C11.6024 36.4823 12.0323 36.3968 12.4334 36.2308C12.8345 36.0647 13.199 35.8213 13.5061 35.5143C13.8131 35.2074 14.0567 34.843 14.2229 34.4419C14.3891 34.0408 14.4747 33.611 14.4748 33.1768C14.4749 32.7427 14.3894 32.3128 14.2234 31.9116C14.0573 31.5105 13.8138 31.146 13.5069 30.839L16.4277 33.7614C17.0478 34.3815 17.8888 34.7298 18.7657 34.7298C19.6427 34.7298 20.4837 34.3815 21.1038 33.7614C21.7239 33.1413 22.0723 32.3002 22.0723 31.4233C22.0723 30.5463 21.7239 29.7053 21.1038 29.0852L10.5845 18.5659C10.2775 18.2588 9.91295 18.0153 9.51178 17.8491C9.11061 17.6829 8.68064 17.5974 8.24642 17.5974C7.81219 17.5974 7.38222 17.6829 6.98105 17.8491C6.57988 18.0153 6.21537 18.2588 5.90833 18.5659C5.60129 18.8729 5.35773 19.2374 5.19156 19.6386C5.02539 20.0398 4.93986 20.4697 4.93986 20.904C4.93986 21.3382 5.02539 21.7682 5.19156 22.1693C5.35773 22.5705 5.60129 22.935 5.90833 23.2421L8.83073 26.1628C8.21063 25.5429 7.36968 25.1948 6.49289 25.1949C5.61609 25.1951 4.77526 25.5435 4.15538 26.1636C3.5355 26.7837 3.18735 27.6247 3.1875 28.5015C3.18766 29.3783 3.53611 30.2191 4.15621 30.839L8.83073 35.5135Z" fill="#2B7FFF" stroke="#2B7FFF" stroke-width="3.30588" stroke-linecap="round" stroke-linejoin="round"/>
</svg>
