<svg width="30" height="30" viewBox="0 0 30 30" fill="none" xmlns="http://www.w3.org/2000/svg">
<path d="M21.8176 15.8312C22.2827 16.2964 22.9136 16.5577 23.5715 16.5577C24.2293 16.5577 24.8602 16.2964 25.3253 15.8312C25.7905 15.3661 26.0518 14.7352 26.0518 14.0774C26.0518 13.4195 25.7905 12.7886 25.3253 12.3235L23.1331 10.1325C23.5983 10.5975 24.2291 10.8587 24.8868 10.8586C25.2125 10.8585 25.535 10.7943 25.8358 10.6696C26.1367 10.545 26.41 10.3622 26.6403 10.1319C26.8705 9.90159 27.0531 9.62818 27.1777 9.32728C27.3023 9.02638 27.3664 8.70389 27.3663 8.37822C27.3663 8.05255 27.3021 7.73009 27.1774 7.42923C27.0527 7.12837 26.87 6.85502 26.6397 6.62478L23.1331 3.11826C22.6681 2.65311 22.0374 2.39172 21.3797 2.3916C20.722 2.39149 20.0912 2.65265 19.626 3.11764C19.1608 3.58264 18.8995 4.21337 18.8993 4.87108C18.8992 5.5288 19.1604 6.15962 19.6254 6.62478L17.4344 4.43259C17.2041 4.20226 16.9307 4.01956 16.6297 3.89491C16.3288 3.77026 16.0063 3.70611 15.6806 3.70611C15.3548 3.70611 15.0323 3.77026 14.7314 3.89491C14.4304 4.01956 14.157 4.20226 13.9267 4.43259C13.6964 4.66291 13.5137 4.93634 13.389 5.23727C13.2644 5.5382 13.2002 5.86074 13.2002 6.18647C13.2002 6.51219 13.2644 6.83473 13.389 7.13566C13.5137 7.43659 13.6964 7.71002 13.9267 7.94034L21.8176 15.8312Z" stroke="#71717B" stroke-width="2.47986" stroke-linecap="round" stroke-linejoin="round"/>
<path d="M3.09961 26.659L4.83604 24.9226" stroke="#71717B" stroke-width="2.47986" stroke-linecap="round" stroke-linejoin="round"/>
<path d="M24.9219 4.83604L26.6583 3.09961" stroke="#71717B" stroke-width="2.47986" stroke-linecap="round" stroke-linejoin="round"/>
<path d="M6.62478 26.6397C7.08977 27.1048 7.7205 27.3662 8.37822 27.3663C8.70389 27.3664 9.02638 27.3023 9.32728 27.1777C9.62818 27.0531 9.90159 26.8705 10.1319 26.6403C10.3622 26.41 10.545 26.1367 10.6696 25.8358C10.7943 25.535 10.8585 25.2125 10.8586 24.8868C10.8586 24.5612 10.7945 24.2387 10.67 23.9378C10.5454 23.6369 10.3628 23.3635 10.1325 23.1331L12.3235 25.3253C12.7886 25.7905 13.4195 26.0518 14.0774 26.0518C14.7352 26.0518 15.3661 25.7905 15.8312 25.3253C16.2964 24.8602 16.5577 24.2293 16.5577 23.5715C16.5577 22.9136 16.2964 22.2827 15.8312 21.8176L7.94034 13.9267C7.71002 13.6964 7.43659 13.5137 7.13566 13.389C6.83473 13.2644 6.51219 13.2002 6.18647 13.2002C5.86074 13.2002 5.5382 13.2644 5.23727 13.389C4.93634 13.5137 4.66291 13.6964 4.43259 13.9267C4.20226 14.157 4.01956 14.4304 3.89491 14.7314C3.77026 15.0323 3.70611 15.3548 3.70611 15.6806C3.70611 16.0063 3.77026 16.3288 3.89491 16.6297C4.01956 16.9307 4.20226 17.2041 4.43259 17.4344L6.62478 19.6254C6.15962 19.1604 5.5288 18.8992 4.87108 18.8993C4.21337 18.8995 3.58264 19.1608 3.11764 19.626C2.65265 20.0912 2.39149 20.722 2.3916 21.3797C2.39172 22.0374 2.65311 22.6681 3.11826 23.1331L6.62478 26.6397Z" stroke="#71717B" stroke-width="2.47986" stroke-linecap="round" stroke-linejoin="round"/>
<path d="M11.9023 17.8552L17.854 11.9036" stroke="#71717B" stroke-width="2.47986" stroke-linecap="round" stroke-linejoin="round"/>
</svg>
