<svg width="38" height="38" viewBox="0 0 38 38" fill="none" xmlns="http://www.w3.org/2000/svg">
<path d="M25.0647 32.9312C24.0216 33.9747 22.6066 34.5611 21.1311 34.5614C19.6556 34.5616 18.2404 33.9757 17.1968 32.9326C16.1533 31.8894 15.5669 30.4745 15.5667 28.9989C15.5664 27.5234 16.1523 26.1082 17.1955 25.0647L12.2803 29.9827C11.2368 31.0262 9.82143 31.6124 8.34566 31.6124C6.86988 31.6124 5.45456 31.0262 4.41103 29.9827C3.3675 28.9391 2.78125 27.5238 2.78125 26.048C2.78125 24.5722 3.3675 23.1569 4.41103 22.1134L22.1134 4.41103C23.1569 3.3675 24.5722 2.78125 26.048 2.78125C27.5238 2.78125 28.9391 3.3675 29.9827 4.41103C31.0262 5.45456 31.6124 6.86988 31.6124 8.34566C31.6124 9.82143 31.0262 11.2368 29.9827 12.2803L25.0647 17.1955C26.1082 16.1523 27.5234 15.5664 28.9989 15.5667C30.4745 15.5669 31.8894 16.1533 32.9326 17.1968C33.9757 18.2404 34.5616 19.6556 34.5614 21.1311C34.5611 22.6066 33.9747 24.0216 32.9312 25.0647L25.0647 32.9312Z" stroke="white" stroke-width="5.56328" stroke-linecap="round" stroke-linejoin="round"/>
</svg>
