<svg width="38" height="38" viewBox="0 0 38 38" fill="none" xmlns="http://www.w3.org/2000/svg">
<path d="M15.2292 32.9316C14.1857 33.9751 12.7704 34.5614 11.2946 34.5614C9.81883 34.5614 8.4035 33.9751 7.35997 32.9316C6.31645 31.8881 5.7302 30.4727 5.7302 28.997C5.7302 27.5212 6.31645 26.1059 7.35997 25.0623L12.2779 20.1472C11.7612 20.6637 11.1478 21.0734 10.4728 21.3529C9.79776 21.6323 9.07429 21.7761 8.34369 21.776C6.86818 21.7757 5.4532 21.1893 4.41004 20.1458C3.89352 19.6291 3.48383 19.0157 3.20436 18.3407C2.9249 17.6656 2.78112 16.9422 2.78125 16.2116C2.78151 14.7361 3.36791 13.3211 4.41144 12.2779L12.2779 4.41144C13.3211 3.36791 14.7361 2.78151 16.2116 2.78125C16.9422 2.78112 17.6656 2.9249 18.3407 3.20436C19.0157 3.48383 19.6291 3.89352 20.1458 4.41004C20.6625 4.92656 21.0724 5.5398 21.3521 6.21474C21.6318 6.88967 21.7758 7.61309 21.776 8.34369C21.7761 9.07429 21.6323 9.79776 21.3529 10.4728C21.0734 11.1478 20.6637 11.7612 20.1472 12.2779L25.0623 7.35997C26.1059 6.31645 27.5212 5.7302 28.997 5.7302C30.4727 5.7302 31.8881 6.31645 32.9316 7.35997C33.9751 8.4035 34.5614 9.81883 34.5614 11.2946C34.5614 12.7704 33.9751 14.1857 32.9316 15.2292L15.2292 32.9316Z" stroke="white" stroke-width="5.56328" stroke-linecap="round" stroke-linejoin="round"/>
</svg>
