<svg width="40" height="40" viewBox="0 0 40 40" fill="none" xmlns="http://www.w3.org/2000/svg">
<path d="M4.13184 35.5387L6.44596 33.2246L4.13184 35.5387Z" fill="#2B7FFF"/>
<path d="M4.13184 35.5387L6.44595 33.2246" stroke="white" stroke-width="3.30588" stroke-linecap="round" stroke-linejoin="round"/>
<path d="M33.2236 6.44644L35.5378 4.13232L33.2236 6.44644Z" fill="#2B7FFF"/>
<path d="M33.2236 6.44644L35.5378 4.13232" stroke="white" stroke-width="3.30588" stroke-linecap="round" stroke-linejoin="round"/>
<path d="M15.8682 23.8028L23.8023 15.8687L15.8682 23.8028Z" fill="#2B7FFF"/>
<path d="M15.8682 23.8028L23.8023 15.8687" stroke="white" stroke-width="3.30588" stroke-linecap="round" stroke-linejoin="round"/>
<path d="M29.0845 21.1053C29.7046 21.7254 30.5456 22.0738 31.4226 22.0738C32.2995 22.0738 33.1405 21.7254 33.7606 21.1053C34.3807 20.4852 34.7291 19.6442 34.7291 18.7672C34.7291 17.8903 34.3807 17.0492 33.7606 16.4291L30.8382 13.5084C31.4583 14.1282 32.2993 14.4764 33.1761 14.4763C33.6102 14.4762 34.0401 14.3906 34.4412 14.2244C34.8423 14.0582 35.2067 13.8146 35.5136 13.5075C35.8205 13.2005 36.064 12.836 36.23 12.4349C36.3961 12.0338 36.4815 11.6038 36.4815 11.1697C36.4814 10.7356 36.3958 10.3057 36.2296 9.9046C36.0634 9.50353 35.8198 9.13913 35.5128 8.83219L30.8382 4.15767C30.2184 3.53758 29.3775 3.18912 28.5007 3.18896C27.6239 3.18881 26.783 3.53697 26.1629 4.15685C25.5428 4.77673 25.1943 5.61755 25.1942 6.49435C25.194 7.37115 25.5422 8.2121 26.1621 8.83219L23.2413 5.90979C22.9343 5.60275 22.5698 5.35919 22.1686 5.19302C21.7674 5.02685 21.3375 4.94133 20.9032 4.94133C20.469 4.94133 20.039 5.02685 19.6379 5.19302C19.2367 5.35919 18.8722 5.60275 18.5651 5.90979C18.2581 6.21683 18.0145 6.58135 17.8484 6.98252C17.6822 7.38369 17.5967 7.81366 17.5967 8.24788C17.5967 8.6821 17.6822 9.11207 17.8484 9.51324C18.0145 9.91441 18.2581 10.2789 18.5651 10.586L29.0845 21.1053Z" fill="#2B7FFF" stroke="#2B7FFF" stroke-width="3.30588" stroke-linecap="round" stroke-linejoin="round"/>
<path d="M8.83073 35.5137C9.45061 36.1338 10.2914 36.4823 11.1682 36.4824C11.6024 36.4825 12.0323 36.3971 12.4334 36.231C12.8345 36.0649 13.199 35.8215 13.5061 35.5146C13.8131 35.2076 14.0567 34.8432 14.2229 34.4422C14.3891 34.0411 14.4747 33.6112 14.4748 33.1771C14.4749 32.7429 14.3894 32.313 14.2234 31.9119C14.0573 31.5108 13.8138 31.1463 13.5069 30.8392L16.4277 33.7616C17.0478 34.3817 17.8888 34.7301 18.7657 34.7301C19.6427 34.7301 20.4837 34.3817 21.1038 33.7616C21.7239 33.1415 22.0723 32.3005 22.0723 31.4235C22.0723 30.5466 21.7239 29.7055 21.1038 29.0854L10.5845 18.5661C10.2775 18.2591 9.91295 18.0155 9.51178 17.8494C9.11061 17.6832 8.68064 17.5977 8.24642 17.5977C7.81219 17.5977 7.38222 17.6832 6.98105 17.8494C6.57988 18.0155 6.21537 18.2591 5.90833 18.5661C5.60129 18.8732 5.35773 19.2377 5.19156 19.6388C5.02539 20.04 4.93986 20.47 4.93986 20.9042C4.93986 21.3384 5.02539 21.7684 5.19156 22.1696C5.35773 22.5707 5.60129 22.9353 5.90833 23.2423L8.83073 26.163C8.21063 25.5432 7.36968 25.195 6.49289 25.1952C5.61609 25.1953 4.77526 25.5438 4.15538 26.1639C3.5355 26.784 3.18735 27.6249 3.1875 28.5017C3.18766 29.3785 3.53611 30.2193 4.15621 30.8392L8.83073 35.5137Z" fill="#2B7FFF" stroke="#2B7FFF" stroke-width="3.30588" stroke-linecap="round" stroke-linejoin="round"/>
</svg>
