<svg width="26" height="26" viewBox="0 0 26 26" fill="none" xmlns="http://www.w3.org/2000/svg">
<path d="M15.4451 15.443L10.2969 10.2948" stroke="white" stroke-width="2.14509" stroke-linecap="round" stroke-linejoin="round"/>
<path d="M20.01 23.0441C19.6078 23.4464 19.0622 23.6725 18.4933 23.6726C17.9244 23.6727 17.3787 23.4468 16.9763 23.0446C16.574 22.6424 16.3479 22.0968 16.3478 21.5279C16.3477 20.9589 16.5736 20.4133 16.9758 20.0109L15.0806 21.9072C14.6783 22.3095 14.1325 22.5356 13.5635 22.5356C12.9945 22.5356 12.4487 22.3095 12.0464 21.9072C11.644 21.5048 11.418 20.9591 11.418 20.39C11.418 19.821 11.644 19.2753 12.0464 18.8729L18.8721 12.0472C19.2744 11.6449 19.8202 11.4188 20.3892 11.4188C20.9582 11.4188 21.5039 11.6449 21.9063 12.0472C22.3087 12.4496 22.5347 12.9953 22.5347 13.5644C22.5347 14.1334 22.3087 14.6791 21.9063 15.0815L20.01 16.9767C20.4124 16.5744 20.9581 16.3485 21.527 16.3486C22.0959 16.3487 22.6415 16.5748 23.0437 16.9772C23.446 17.3796 23.6719 17.9252 23.6718 18.4942C23.6717 19.0631 23.4456 19.6087 23.0432 20.0109L20.01 23.0441Z" stroke="white" stroke-width="2.14509" stroke-linecap="round" stroke-linejoin="round"/>
<path d="M23.0592 23.0585L21.5576 21.5569" stroke="white" stroke-width="2.14509" stroke-linecap="round" stroke-linejoin="round"/>
<path d="M4.18321 4.1826L2.68164 2.68103" stroke="white" stroke-width="2.14509" stroke-linecap="round" stroke-linejoin="round"/>
<path d="M6.86806 13.6935C6.4657 14.0959 5.91998 14.3219 5.35095 14.3219C4.78192 14.3219 4.23619 14.0959 3.83383 13.6935C3.43146 13.2911 3.20542 12.7454 3.20542 12.1764C3.20542 11.6074 3.43146 11.0616 3.83383 10.6593L5.73009 8.76408C5.53086 8.96324 5.29435 9.12121 5.03407 9.22897C4.77379 9.33673 4.49483 9.39216 4.21313 9.39211C3.6442 9.39201 3.09861 9.16591 2.69639 8.76355C2.49723 8.56432 2.33926 8.32781 2.2315 8.06753C2.12375 7.80725 2.06831 7.52829 2.06836 7.24659C2.06846 6.67766 2.29456 6.13207 2.69693 5.72985L5.73009 2.69668C6.13231 2.29432 6.6779 2.06822 7.24683 2.06812C7.52853 2.06807 7.80749 2.1235 8.06777 2.23126C8.32805 2.33902 8.56456 2.49699 8.76379 2.69615C8.96302 2.89531 9.12107 3.13176 9.22892 3.392C9.33677 3.65224 9.39231 3.93118 9.39236 4.21289C9.39241 4.49459 9.33697 4.77355 9.22921 5.03383C9.12146 5.29411 8.96349 5.53062 8.76433 5.72985L10.6595 3.83358C11.0619 3.43122 11.6076 3.20517 12.1766 3.20517C12.7457 3.20517 13.2914 3.43122 13.6938 3.83358C14.0961 4.23595 14.3222 4.78167 14.3222 5.3507C14.3222 5.91973 14.0961 6.46545 13.6938 6.86782L6.86806 13.6935Z" stroke="white" stroke-width="2.14509" stroke-linecap="round" stroke-linejoin="round"/>
</svg>
