<svg width="40" height="40" viewBox="0 0 40 40" fill="none" xmlns="http://www.w3.org/2000/svg">
<path d="M18.1812 7.77155C18.1808 7.54132 18.1123 7.31634 17.9842 7.12501C17.8562 6.93369 17.6743 6.78458 17.4616 6.69652C17.2488 6.60846 17.0148 6.58538 16.789 6.63021C16.5631 6.67504 16.3556 6.78575 16.1927 6.94839L10.5991 12.5403C10.3833 12.7574 10.1264 12.9296 9.84355 13.0468C9.56066 13.164 9.25733 13.2239 8.95114 13.223H4.95763C4.51924 13.223 4.09881 13.3971 3.78882 13.7071C3.47884 14.0171 3.30469 14.4375 3.30469 14.8759V24.7935C3.30469 25.2319 3.47884 25.6524 3.78882 25.9624C4.09881 26.2723 4.51924 26.4465 4.95763 26.4465H8.95114C9.25733 26.4456 9.56066 26.5055 9.84355 26.6227C10.1264 26.7398 10.3833 26.912 10.5991 27.1292L16.191 32.7227C16.354 32.886 16.5618 32.9973 16.7881 33.0424C17.0143 33.0875 17.2489 33.0644 17.462 32.976C17.6751 32.8877 17.8573 32.7381 17.9853 32.5462C18.1133 32.3542 18.1815 32.1286 18.1812 31.8979V7.77155Z" stroke="#9F9FA9" stroke-width="3.30588" stroke-linecap="round" stroke-linejoin="round"/>
<path d="M26.4473 14.8757C27.5202 16.3063 28.1002 18.0463 28.1002 19.8346C28.1002 21.6228 27.5202 23.3628 26.4473 24.7934" stroke="#9F9FA9" stroke-width="3.30588" stroke-linecap="round" stroke-linejoin="round"/>
<path d="M32.0059 30.3548C33.3873 28.9734 34.4831 27.3334 35.2307 25.5285C35.9783 23.7236 36.3631 21.7891 36.3631 19.8355C36.3631 17.8819 35.9783 15.9474 35.2307 14.1425C34.4831 12.3376 33.3873 10.6976 32.0059 9.31616" stroke="#9F9FA9" stroke-width="3.30588" stroke-linecap="round" stroke-linejoin="round"/>
</svg>
