<svg width="50" height="50" viewBox="0 0 50 50" fill="none" xmlns="http://www.w3.org/2000/svg">
<path d="M45.4697 24.8007H40.3439C39.4406 24.7988 38.5616 25.0928 37.8412 25.6378C37.1208 26.1827 36.5988 26.9486 36.3549 27.8183L31.4978 45.0971C31.4665 45.2045 31.4012 45.2988 31.3118 45.3658C31.2224 45.4329 31.1136 45.4692 31.0018 45.4692C30.89 45.4692 30.7812 45.4329 30.6917 45.3658C30.6023 45.2988 30.537 45.2045 30.5057 45.0971L19.0968 4.50436C19.0654 4.39703 19.0002 4.30275 18.9107 4.23567C18.8213 4.16859 18.7125 4.13232 18.6007 4.13232C18.4889 4.13232 18.3801 4.16859 18.2907 4.23567C18.2012 4.30275 18.136 4.39703 18.1047 4.50436L13.2476 21.7832C13.0047 22.6495 12.4857 23.4129 11.7695 23.9575C11.0533 24.5021 10.179 24.7982 9.27925 24.8007H4.13281" stroke="#2B7FFF" stroke-width="4.13368" stroke-linecap="round" stroke-linejoin="round"/>
</svg>
