<svg width="30" height="30" viewBox="0 0 30 30" fill="none" xmlns="http://www.w3.org/2000/svg">
<path d="M22.3184 9.91906C24.3728 9.91906 26.0382 8.25366 26.0382 6.19928C26.0382 4.1449 24.3728 2.47949 22.3184 2.47949C20.264 2.47949 18.5986 4.1449 18.5986 6.19928C18.5986 8.25366 20.264 9.91906 22.3184 9.91906Z" stroke="#F4F4F5" stroke-width="2.47986" stroke-linecap="round" stroke-linejoin="round"/>
<path d="M7.43951 18.5987C9.49389 18.5987 11.1593 16.9333 11.1593 14.879C11.1593 12.8246 9.49389 11.1592 7.43951 11.1592C5.38513 11.1592 3.71973 12.8246 3.71973 14.879C3.71973 16.9333 5.38513 18.5987 7.43951 18.5987Z" stroke="#F4F4F5" stroke-width="2.47986" stroke-linecap="round" stroke-linejoin="round"/>
<path d="M22.3184 27.2765C24.3728 27.2765 26.0382 25.6111 26.0382 23.5567C26.0382 21.5023 24.3728 19.8369 22.3184 19.8369C20.264 19.8369 18.5986 21.5023 18.5986 23.5567C18.5986 25.6111 20.264 27.2765 22.3184 27.2765Z" stroke="#F4F4F5" stroke-width="2.47986" stroke-linecap="round" stroke-linejoin="round"/>
<path d="M10.6504 16.751L19.1191 21.6859" stroke="#F4F4F5" stroke-width="2.47986" stroke-linecap="round" stroke-linejoin="round"/>
<path d="M19.1067 8.07129L10.6504 13.0062" stroke="#F4F4F5" stroke-width="2.47986" stroke-linecap="round" stroke-linejoin="round"/>
</svg>
