<svg width="26" height="26" viewBox="0 0 26 26" fill="none" xmlns="http://www.w3.org/2000/svg">
<path d="M15.4451 15.4451L10.2969 10.2969" stroke="white" stroke-width="2.14509" stroke-linecap="round" stroke-linejoin="round"/>
<path d="M20.01 23.0437C19.6078 23.4461 19.0622 23.6722 18.4933 23.6723C17.9244 23.6724 17.3787 23.4465 16.9763 23.0442C16.574 22.642 16.3479 22.0964 16.3478 21.5275C16.3477 20.9586 16.5736 20.4129 16.9758 20.0105L15.0806 21.9068C14.6783 22.3092 14.1325 22.5352 13.5635 22.5352C12.9945 22.5352 12.4487 22.3092 12.0464 21.9068C11.644 21.5044 11.418 20.9587 11.418 20.3897C11.418 19.8206 11.644 19.2749 12.0464 18.8726L18.8721 12.0469C19.2744 11.6445 19.8202 11.4185 20.3892 11.4185C20.9582 11.4185 21.5039 11.6445 21.9063 12.0469C22.3087 12.4492 22.5347 12.995 22.5347 13.564C22.5347 14.133 22.3087 14.6787 21.9063 15.0811L20.01 16.9763C20.4124 16.5741 20.9581 16.3482 21.527 16.3483C22.0959 16.3484 22.6415 16.5745 23.0437 16.9768C23.446 17.3792 23.6719 17.9249 23.6718 18.4938C23.6717 19.0627 23.4456 19.6083 23.0432 20.0105L20.01 23.0437Z" stroke="white" stroke-width="2.14509" stroke-linecap="round" stroke-linejoin="round"/>
<path d="M23.0592 23.0593L21.5576 21.5577" stroke="white" stroke-width="2.14509" stroke-linecap="round" stroke-linejoin="round"/>
<path d="M4.18321 4.18333L2.68164 2.68176" stroke="white" stroke-width="2.14509" stroke-linecap="round" stroke-linejoin="round"/>
<path d="M6.86806 13.6942C6.4657 14.0966 5.91998 14.3227 5.35095 14.3227C4.78192 14.3227 4.23619 14.0966 3.83383 13.6942C3.43146 13.2919 3.20542 12.7462 3.20542 12.1771C3.20542 11.6081 3.43146 11.0624 3.83383 10.66L5.73009 8.76482C5.53086 8.96398 5.29435 9.12194 5.03407 9.2297C4.77379 9.33746 4.49483 9.3929 4.21313 9.39285C3.6442 9.39275 3.09861 9.16664 2.69639 8.76428C2.49723 8.56505 2.33926 8.32854 2.2315 8.06826C2.12375 7.80798 2.06831 7.52902 2.06836 7.24732C2.06846 6.67839 2.29456 6.1328 2.69693 5.73058L5.73009 2.69742C6.13231 2.29505 6.6779 2.06895 7.24683 2.06885C7.52853 2.0688 7.80749 2.12423 8.06777 2.23199C8.32805 2.33975 8.56456 2.49772 8.76379 2.69688C8.96302 2.89604 9.12107 3.13249 9.22892 3.39273C9.33677 3.65298 9.39231 3.93191 9.39236 4.21362C9.39241 4.49532 9.33697 4.77428 9.22921 5.03456C9.12146 5.29484 8.96349 5.53135 8.76433 5.73058L10.6595 3.83432C11.0619 3.43195 11.6076 3.2059 12.1766 3.2059C12.7457 3.2059 13.2914 3.43195 13.6938 3.83432C14.0961 4.23668 14.3222 4.7824 14.3222 5.35143C14.3222 5.92046 14.0961 6.46619 13.6938 6.86855L6.86806 13.6942Z" stroke="white" stroke-width="2.14509" stroke-linecap="round" stroke-linejoin="round"/>
</svg>
