<svg width="40" height="40" viewBox="0 0 40 40" fill="none" xmlns="http://www.w3.org/2000/svg">
<path d="M29.0845 21.1046C29.7046 21.7247 30.5456 22.073 31.4226 22.073C32.2995 22.073 33.1405 21.7247 33.7606 21.1046C34.3807 20.4845 34.7291 19.6434 34.7291 18.7665C34.7291 17.8895 34.3807 17.0485 33.7606 16.4284L30.8382 13.5076C31.4583 14.1275 32.2993 14.4757 33.1761 14.4755C33.6102 14.4754 34.0401 14.3899 34.4412 14.2236C34.8423 14.0574 35.2067 13.8139 35.5136 13.5068C35.8205 13.1998 36.064 12.8353 36.23 12.4341C36.3961 12.033 36.4815 11.6031 36.4815 11.169C36.4814 10.7348 36.3958 10.3049 36.2296 9.90387C36.0634 9.5028 35.8198 9.1384 35.5128 8.83146L30.8382 4.15694C30.2184 3.53684 29.3775 3.18839 28.5007 3.18823C27.6239 3.18808 26.783 3.53624 26.1629 4.15612C25.5428 4.776 25.1943 5.61682 25.1942 6.49362C25.194 7.37042 25.5422 8.21136 26.1621 8.83146L23.2413 5.90906C22.9343 5.60202 22.5698 5.35846 22.1686 5.19229C21.7674 5.02612 21.3375 4.94059 20.9032 4.94059C20.469 4.94059 20.039 5.02612 19.6379 5.19229C19.2367 5.35846 18.8722 5.60202 18.5651 5.90906C18.2581 6.2161 18.0145 6.58061 17.8484 6.98178C17.6822 7.38295 17.5967 7.81292 17.5967 8.24715C17.5967 8.68137 17.6822 9.11134 17.8484 9.51251C18.0145 9.91368 18.2581 10.2782 18.5651 10.5852L29.0845 21.1046Z" stroke="#71717B" stroke-width="3.30588" stroke-linecap="round" stroke-linejoin="round"/>
<path d="M4.13184 35.5387L6.44595 33.2246" stroke="#71717B" stroke-width="3.30588" stroke-linecap="round" stroke-linejoin="round"/>
<path d="M33.2236 6.44718L35.5378 4.13306" stroke="#71717B" stroke-width="3.30588" stroke-linecap="round" stroke-linejoin="round"/>
<path d="M8.83073 35.5133C9.45061 36.1334 10.2914 36.4818 11.1682 36.482C11.6024 36.482 12.0323 36.3966 12.4334 36.2305C12.8345 36.0645 13.199 35.821 13.5061 35.5141C13.8131 35.2071 14.0567 34.8427 14.2229 34.4417C14.3891 34.0406 14.4747 33.6107 14.4748 33.1766C14.4749 32.7424 14.3894 32.3125 14.2234 31.9114C14.0573 31.5103 13.8138 31.1458 13.5069 30.8387L16.4277 33.7611C17.0478 34.3812 17.8888 34.7296 18.7657 34.7296C19.6427 34.7296 20.4837 34.3812 21.1038 33.7611C21.7239 33.141 22.0723 32.3 22.0723 31.423C22.0723 30.5461 21.7239 29.7051 21.1038 29.085L10.5845 18.5656C10.2775 18.2586 9.91295 18.015 9.51178 17.8489C9.11061 17.6827 8.68064 17.5972 8.24641 17.5972C7.81219 17.5972 7.38222 17.6827 6.98105 17.8489C6.57988 18.015 6.21537 18.2586 5.90833 18.5656C5.60129 18.8727 5.35773 19.2372 5.19156 19.6384C5.02539 20.0395 4.93986 20.4695 4.93986 20.9037C4.93986 21.3379 5.02539 21.7679 5.19156 22.1691C5.35773 22.5703 5.60129 22.9348 5.90833 23.2418L8.83073 26.1626C8.21063 25.5427 7.36968 25.1945 6.49289 25.1947C5.61609 25.1948 4.77526 25.5433 4.15538 26.1634C3.5355 26.7835 3.18735 27.6244 3.1875 28.5012C3.18766 29.378 3.53611 30.2188 4.15621 30.8387L8.83073 35.5133Z" stroke="#71717B" stroke-width="3.30588" stroke-linecap="round" stroke-linejoin="round"/>
<path d="M15.8682 23.8028L23.8023 15.8687" stroke="#71717B" stroke-width="3.30588" stroke-linecap="round" stroke-linejoin="round"/>
</svg>
