<svg width="30" height="30" viewBox="0 0 30 30" fill="none" xmlns="http://www.w3.org/2000/svg">
<path d="M21.8176 15.832C22.2827 16.2971 22.9136 16.5585 23.5715 16.5585C24.2293 16.5585 24.8602 16.2971 25.3253 15.832C25.7905 15.3668 26.0518 14.7359 26.0518 14.0781C26.0518 13.4203 25.7905 12.7894 25.3253 12.3242L23.1331 10.1333C23.5983 10.5983 24.2291 10.8594 24.8868 10.8593C25.2125 10.8593 25.535 10.7951 25.8358 10.6704C26.1367 10.5457 26.41 10.363 26.6403 10.1326C26.8705 9.90233 27.0531 9.62891 27.1777 9.32801C27.3023 9.02711 27.3664 8.70462 27.3663 8.37895C27.3663 8.05328 27.3021 7.73082 27.1774 7.42996C27.0527 7.12911 26.87 6.85575 26.6397 6.62551L23.1331 3.119C22.6681 2.65384 22.0374 2.39245 21.3797 2.39233C20.722 2.39222 20.0912 2.65338 19.626 3.11838C19.1608 3.58337 18.8995 4.2141 18.8993 4.87182C18.8992 5.52953 19.1604 6.16036 19.6254 6.62551L17.4344 4.43332C17.2041 4.203 16.9307 4.0203 16.6297 3.89565C16.3288 3.771 16.0063 3.70684 15.6806 3.70684C15.3548 3.70684 15.0323 3.771 14.7314 3.89565C14.4304 4.0203 14.157 4.203 13.9267 4.43332C13.6964 4.66364 13.5137 4.93707 13.389 5.23801C13.2644 5.53894 13.2002 5.86147 13.2002 6.1872C13.2002 6.51292 13.2644 6.83546 13.389 7.13639C13.5137 7.43732 13.6964 7.71075 13.9267 7.94108L21.8176 15.832Z" stroke="#2B7FFF" stroke-width="2.47986" stroke-linecap="round" stroke-linejoin="round"/>
<path d="M3.09961 26.659L4.83604 24.9226" stroke="#2B7FFF" stroke-width="2.47986" stroke-linecap="round" stroke-linejoin="round"/>
<path d="M24.9229 4.83604L26.6593 3.09961" stroke="#2B7FFF" stroke-width="2.47986" stroke-linecap="round" stroke-linejoin="round"/>
<path d="M6.62576 26.6397C7.09075 27.1048 7.72148 27.3662 8.3792 27.3663C8.70486 27.3664 9.02735 27.3023 9.32825 27.1777C9.62915 27.0531 9.90257 26.8705 10.1329 26.6403C10.3632 26.41 10.5459 26.1367 10.6706 25.8358C10.7953 25.535 10.8595 25.2125 10.8596 24.8868C10.8596 24.5612 10.7955 24.2387 10.671 23.9378C10.5464 23.6369 10.3638 23.3635 10.1335 23.1331L12.3245 25.3253C12.7896 25.7905 13.4205 26.0518 14.0783 26.0518C14.7362 26.0518 15.3671 25.7905 15.8322 25.3253C16.2974 24.8602 16.5587 24.2293 16.5587 23.5715C16.5587 22.9136 16.2974 22.2827 15.8322 21.8176L7.94132 13.9267C7.711 13.6964 7.43757 13.5137 7.13663 13.389C6.8357 13.2644 6.51317 13.2002 6.18744 13.2002C5.86172 13.2002 5.53918 13.2644 5.23825 13.389C4.93732 13.5137 4.66389 13.6964 4.43356 13.9267C4.20324 14.157 4.02054 14.4304 3.89589 14.7314C3.77124 15.0323 3.70708 15.3548 3.70708 15.6806C3.70708 16.0063 3.77124 16.3288 3.89589 16.6297C4.02054 16.9307 4.20324 17.2041 4.43356 17.4344L6.62576 19.6254C6.1606 19.1604 5.52978 18.8992 4.87206 18.8993C4.21434 18.8995 3.58361 19.1608 3.11862 19.626C2.65363 20.0912 2.39246 20.722 2.39258 21.3797C2.39269 22.0374 2.65408 22.6681 3.11924 23.1331L6.62576 26.6397Z" stroke="#2B7FFF" stroke-width="2.47986" stroke-linecap="round" stroke-linejoin="round"/>
<path d="M11.9033 17.8547L17.855 11.9031" stroke="#2B7FFF" stroke-width="2.47986" stroke-linecap="round" stroke-linejoin="round"/>
</svg>
